<svg id="Layer_1" data-name="Layer 1" xmlns="http://www.w3.org/2000/svg" xmlns:xlink="http://www.w3.org/1999/xlink" viewBox="0 0 512 512"><defs><linearGradient id="linear-gradient" x1="256" y1="633.8" x2="256" y2="-118.22" gradientUnits="userSpaceOnUse"><stop offset="0" stop-color="#231f20"/><stop offset="1" stop-color="#58595b"/></linearGradient></defs><title>dollar</title><path d="M124.9,334.83h26.39c30.88,0,30.48,4.9,45,29.24C212,390.56,247.77,406.29,286,390c19.4-8.29,33.87-33.69,17.29-63.29-15.91-28.36-52.7-32.39-89.25-41.31-39-9.53-80.75-22.79-100.45-52.69C82.35,185.34,83.09,118.48,147.65,78c26.28-16.49,52.69-26.55,82.76-29.7V20.14C230.41-.81,236.46,0,256.34,0c8.78,0,15.77.18,19.58,3.21s4.41,9,4.41,18.14V49c6.1.67,12.37,1.59,18.84,2.72,53.73,9.51,89.55,30.76,105.69,85.44,8.33,28.2-5.64,33.94-31.33,33.94H334.62c-25,0-29.07-6.05-35.91-28.54-2.75-9-7.13-16-14.71-20.64-31.55-19.19-86.25-3.19-83.78,38.84,1.62,28,40.85,38.63,80.54,50.45C332.38,226.6,386.83,241.24,408.67,290c23.41,52.26,8.89,111.48-49.43,144.46a208.49,208.49,0,0,1-78.92,25.72v29.1c0,21.11-4,22.75-23.53,22.75-21.2,0-26.39,0-26.39-22.75v-28.4a309.8,309.8,0,0,1-39.69-6C137,443.33,110.1,419.75,95.37,368.42,87.26,340.09,97.45,334.83,124.9,334.83Z" fill-rule="evenodd" fill="url(#linear-gradient)"/></svg>